Coordinates
nRows=257
nColumns=2
inDegrees=yes
endheader
time	ankle_angle_r	
3.95867	  9.412217	
3.99194	  9.424944	
4.0252	  9.421266	
4.05847	  9.408506	
4.09173	  9.403973	
4.125	  9.410076	
4.15827	  9.418415	
4.19153	  9.427915	
4.2248	  9.438614	
4.25806	  9.440942	
4.29133	  9.430169	
4.3246	  9.416430	
4.35786	  9.411806	
4.39113	  9.415962	
4.4244	  9.419973	
4.45766	  9.421335	
4.49093	  9.423498	
4.52419	  9.424224	
4.55746	  9.420810	
4.59073	  9.418641	
4.62399	  9.420272	
4.65726	  9.420545	
4.69052	  9.417436	
4.72379	  9.413645	
4.75706	  9.412102	
4.79032	  9.414418	
4.82359	  9.417652	
4.85685	  9.417815	
4.89012	  9.416313	
4.92339	  9.414344	
4.95665	  9.411939	
4.98992	  9.414769	
5.02319	  9.423891	
5.05645	  9.429447	
5.08972	  9.426432	
5.12298	  9.418135	
5.15625	  9.406556	
5.18952	  9.394608	
5.22278	  9.387964	
5.25605	  9.391165	
5.28931	  9.405163	
5.32258	  9.421286	
5.35585	  9.426111	
5.38911	  9.418414	
5.42238	  9.406695	
5.45565	  9.396470	
5.48891	  9.391317	
5.52218	  9.394164	
5.55544	  9.405189	
5.58871	  9.420463	
5.62198	  9.431239	
5.65524	  9.433386	
5.68851	  9.430753	
5.72177	  9.425037	
5.75504	  9.417925	
5.78831	  9.415436	
5.82157	  9.419333	
5.85484	  9.425249	
5.8881	  9.427472	
5.92137	  9.421430	
5.95464	  9.410104	
5.9879	  9.402332	
6.02117	  9.399927	
6.05444	  9.396985	
6.0877	  9.389392	
6.12097	  9.379835	
6.15423	  9.376076	
6.1875	  9.380453	
6.22077	  9.385643	
6.25403	  9.386693	
6.2873	  9.386137	
6.32056	  9.386140	
6.35383	  9.386192	
6.3871	  9.385047	
6.42036	  9.382300	
6.45363	  9.381108	
6.4869	  9.383136	
6.52016	  9.383877	
6.55343	  9.381903	
6.58669	  9.382292	
6.61996	  9.386995	
6.65323	  9.392778	
6.68649	  9.395484	
6.71976	  9.394597	
6.75302	  9.395421	
6.78629	  9.398688	
6.81956	  9.396918	
6.85282	  9.390334	
6.88609	  9.388451	
6.91935	  9.393674	
6.95262	  9.400904	
6.98589	  9.406678	
7.01915	  9.409312	
7.05242	  9.408599	
7.08569	  9.404821	
7.11895	  9.396580	
7.15222	  9.386266	
7.18548	  9.380572	
7.21875	  9.382113	
7.25202	  9.389194	
7.28528	  9.396335	
7.31855	  9.394681	
7.35181	  9.384290	
7.38508	  9.374351	
7.41835	  9.369207	
7.45161	  9.369338	
7.48488	  9.374666	
7.51815	  9.380747	
7.55141	  9.384150	
7.58468	  9.385254	
7.61794	  9.384411	
7.65121	  9.385642	
7.68448	  9.394577	
7.71774	  9.409470	
7.75101	  9.422304	
7.78427	  9.424094	
7.81754	  9.412791	
7.85081	  9.397723	
7.88407	  9.388768	
7.91734	  9.389190	
7.9506	  9.397000	
7.98387	  9.404159	
8.01714	  9.402051	
8.0504	  9.390310	
8.08367	  9.377799	
8.11694	  9.375197	
8.1502	  9.385196	
8.18347	  9.401583	
8.21673	  9.416406	
8.25	  9.423471	
8.28327	  9.419910	
8.31653	  9.410549	
8.3498	  9.403758	
8.38306	  9.400481	
8.41633	  9.398227	
8.4496	  9.401354	
8.48286	  9.412830	
8.51613	  9.423299	
8.5494	  9.422655	
8.58266	  9.414692	
8.61593	  9.409872	
8.64919	  9.413104	
8.68246	  9.421131	
8.71573	  9.426848	
8.74899	  9.429224	
8.78226	  9.429706	
8.81552	  9.421637	
8.84879	  9.402216	
8.88206	  9.382285	
8.91532	  9.374696	
8.94859	  9.385780	
8.98185	  9.410803	
9.01512	  9.433910	
9.04839	  9.440875	
9.08165	  9.429029	
9.11492	  9.408166	
9.14819	  9.393994	
9.18145	  9.393590	
9.21472	  9.402652	
9.24798	  9.416435	
9.28125	  9.428527	
9.31452	  9.429670	
9.34778	  9.421327	
9.38105	  9.413319	
9.41431	  9.408315	
9.44758	  9.402675	
9.48085	  9.395551	
9.51411	  9.394339	
9.54738	  9.405988	
9.58065	  9.419255	
9.61391	  9.415478	
9.64718	  9.395078	
9.68044	  9.374933	
9.71371	  9.367144	
9.74698	  9.369522	
9.78024	  9.373318	
9.81351	  9.375053	
9.84677	  9.376937	
9.88004	  9.380143	
9.91331	  9.383944	
9.94657	  9.386602	
9.97984	  9.385474	
10.0131	  9.381275	
10.0464	  9.377665	
10.0796	  9.377292	
10.1129	  9.381628	
10.1462	  9.387519	
10.1794	  9.388376	
10.2127	  9.383921	
10.246	  9.378602	
10.2792	  9.374243	
10.3125	  9.371996	
10.3458	  9.371322	
10.379	  9.369471	
10.4123	  9.368303	
10.4456	  9.369668	
10.4788	  9.369800	
10.5121	  9.369413	
10.5454	  9.373612	
10.5786	  9.381529	
10.6119	  9.389607	
10.6452	  9.394950	
10.6784	  9.394274	
10.7117	  9.389068	
10.745	  9.384430	
10.7782	  9.382612	
10.8115	  9.384193	
10.8448	  9.388903	
10.878	  9.393762	
10.9113	  9.396635	
10.9446	  9.398017	
10.9778	  9.398065	
11.0111	  9.397574	
11.0444	  9.398429	
11.0776	  9.400992	
11.1109	  9.405794	
11.1442	  9.411902	
11.1774	  9.412756	
11.2107	  9.406190	
11.244	  9.401121	
11.2772	  9.404844	
11.3105	  9.418122	
11.3437	  9.440959	
11.377	  9.467312	
11.4103	  9.483462	
11.4435	  9.481103	
11.4768	  9.466078	
11.5101	  9.452225	
11.5433	  9.446194	
11.5766	  9.446002	
11.6099	  9.450522	
11.6431	  9.454888	
11.6764	  9.451592	
11.7097	  9.441655	
11.7429	  9.432423	
11.7762	  9.431591	
11.8095	  9.438752	
11.8427	  9.440018	
11.876	  9.426086	
11.9093	  9.407397	
11.9425	  9.397169	
11.9758	  9.393039	
12.0091	  9.385691	
12.0423	  9.372117	
12.0756	  9.356843	
12.1089	  9.347110	
12.1421	  9.344877	
12.1754	  9.346240	
12.2087	  9.348069	
12.2419	  9.348052	
12.2752	  9.345058	
12.3085	  9.341703	
12.3417	  9.339574	
12.375	  9.338797	
12.4083	  9.342759	
12.4415	  9.353415	
12.4748	  9.367633	
